<svg width="207" height="88" viewBox="0 0 207 88" fill="none" xmlns="http://www.w3.org/2000/svg">
<path fill-rule="evenodd" clip-rule="evenodd" d="M54.1181 57.7015H54.1175C53.2626 56.8462 51.863 56.8462 51.0077 57.7015L41.317 67.3918C40.4617 68.2471 40.4617 69.6467 41.317 70.502C42.1723 71.3573 43.5718 71.3573 44.4272 70.502L50.3229 64.6063V84.4833C50.3229 85.6927 51.3127 86.6825 52.5221 86.6825C53.7316 86.6825 54.7216 85.6927 54.7216 84.4833V64.6063L60.6171 70.502C61.4724 71.3573 62.8717 71.3573 63.727 70.502H63.7275C64.5829 69.6467 64.5829 68.2471 63.7275 67.3918L54.4293 58.0938C54.3424 57.9543 54.239 57.8225 54.1181 57.7015Z" fill="white" stroke="white" stroke-width="0.755906" stroke-miterlimit="22.9256"/>
<path d="M196.951 0.191049C197.277 0.222419 197.594 0.267811 197.897 0.324882V0.327097C198.227 0.391727 199.291 0.632471 200.341 1.10869C200.981 1.3982 201.648 1.78297 202.205 2.28603C203.45 3.24112 204.478 4.46832 205.186 5.87998C205.875 7.25119 206.264 8.78945 206.264 10.4158V64.1542C206.264 66.9859 205.112 69.5552 203.253 71.4148C201.393 73.2747 198.823 74.427 195.991 74.427H76.5704V68.7109H76.6114V57.3357C76.6012 51.2287 71.6581 46.2858 65.5519 46.2756C59.561 46.2756 49.2524 46.2756 40.3108 46.2756C34.2039 46.2858 29.2609 51.2287 29.2507 57.3357V62.8916H29.21V74.427H10.3581C7.52911 74.427 4.96063 73.2747 3.1011 71.4148L3.09756 71.4109C1.23803 69.5518 0.0854492 66.9836 0.0854492 64.1542V43.6288L0.0889925 43.625L0.0898784 43.5256H0.0860398C0.0860398 43.0025 0.0876224 40.6894 0.527182 38.2358L0.53102 38.2003C0.97587 36.1669 1.74758 34.0529 2.73555 32.1258C3.70122 30.2421 4.87901 28.5334 6.16783 27.2453L6.16547 27.2434L27.185 6.22095H27.1879C28.9023 4.50731 31.3647 2.98415 33.9922 1.89678C36.6228 0.8079 39.4395 0.143066 41.861 0.143066H195.993C196.285 0.143066 196.605 0.159301 196.948 0.191049H196.951ZM23.2085 68.7109L23.2108 57.3357C23.2124 49.9168 27.9328 43.605 34.5367 41.2375C36.5943 40.5439 38.5849 40.3833 40.576 40.2378H43.2816C42.9963 39.9925 42.7215 39.7378 42.4569 39.4724C41.0933 38.1095 39.9931 36.4768 39.2414 34.6619C38.5187 32.915 38.1172 31.0014 38.1172 28.9987C38.1172 26.9966 38.5187 25.0823 39.2414 23.3358C39.9931 21.5212 41.0933 19.8884 42.4569 18.5244C43.8202 17.1615 45.4529 16.0613 47.269 15.3095C49.0148 14.5854 50.9282 14.1847 52.9309 14.1847C54.9329 14.1847 56.8467 14.5854 58.594 15.3095C60.4086 16.0613 62.0404 17.1615 63.4052 18.5244C64.7681 19.8884 65.8684 21.5212 66.6202 23.3358C67.3436 25.0823 67.744 26.9966 67.744 28.9987C67.744 31.0014 67.3436 32.915 66.6202 34.6619C65.8684 36.4768 64.7681 38.1095 63.4052 39.4724C63.1399 39.7378 62.8651 39.9925 62.5805 40.2378H65.5519C74.9962 40.2378 82.6492 47.8891 82.6507 57.3357L82.6528 68.7109H195.993V68.7071C197.251 68.7071 198.389 68.1968 199.209 67.3759V67.3722C200.032 66.549 200.544 65.4087 200.544 64.1542V10.4158V10.4143H200.549C200.549 9.16328 200.036 8.02377 199.209 7.19757V7.19336C198.389 6.37169 197.251 5.86145 195.993 5.86145H195.991V5.85694L41.861 5.85923V5.86337C40.1867 5.86337 38.1231 6.37018 36.174 7.17749C34.2223 7.98593 32.4048 9.08464 31.2237 10.2642L10.2102 31.283L10.2066 31.2864C9.02929 32.4633 7.93034 34.2816 7.12039 36.236C6.31233 38.1859 5.80523 40.2472 5.80523 41.9181H5.80139V64.1542H5.80612C5.80612 65.4102 6.31703 66.5505 7.1387 67.3737L7.14047 67.3722C7.96365 68.1953 9.10328 68.7064 10.3581 68.7064V68.7109H23.2085ZM59.1344 22.7945C58.3248 21.9838 57.3584 21.3326 56.2873 20.8889C55.257 20.4611 54.1226 20.2256 52.9309 20.2256C51.7389 20.2256 50.6042 20.4611 49.5739 20.8889C48.5036 21.3326 47.5365 21.9838 46.7269 22.7945C45.9154 23.6056 45.2635 24.5712 44.8206 25.6409C44.3943 26.6734 44.158 27.807 44.158 28.9987C44.158 30.1907 44.3943 31.3253 44.8206 32.3564C45.2635 33.426 45.9154 34.3917 46.7269 35.2035C47.5365 36.0131 48.5036 36.6661 49.5739 37.1087C50.6042 37.5362 51.7389 37.7717 52.9309 37.7717C54.1226 37.7717 55.257 37.5362 56.2873 37.1087C57.3584 36.6661 58.324 36.0138 59.1344 35.2035C59.9458 34.3917 60.5978 33.426 61.0415 32.3564C61.4679 31.3253 61.7042 30.1907 61.7042 28.9987C61.7042 27.807 61.4679 26.6734 61.0415 25.6409C60.5978 24.5712 59.9458 23.6056 59.1344 22.7945Z" fill="white"/>
<path d="M101.504 29.9596C101.976 29.9596 102.394 29.9055 102.758 29.7973C103.122 29.6792 103.461 29.5612 103.776 29.4431C103.914 29.3841 104.012 29.3743 104.071 29.4136C104.13 29.4431 104.184 29.512 104.233 29.6202L104.735 30.6826C104.804 30.8203 104.828 30.9236 104.809 30.9924C104.789 31.0613 104.735 31.1203 104.646 31.1695C104.115 31.4941 103.555 31.7155 102.964 31.8335C102.384 31.9417 101.809 31.9958 101.238 31.9958C100.431 31.9958 99.733 31.8778 99.1428 31.6417C98.5624 31.3958 98.0804 31.0465 97.6968 30.5941C97.323 30.1416 97.0426 29.5907 96.8557 28.9415C96.6786 28.2824 96.5901 27.5446 96.5901 26.7282C96.5901 25.9215 96.7032 25.1887 96.9295 24.5296C97.1656 23.8706 97.4902 23.3049 97.9033 22.8328C98.3165 22.3606 98.8132 21.9966 99.3936 21.7409C99.9838 21.4851 100.633 21.3572 101.341 21.3572C101.843 21.3572 102.335 21.4015 102.817 21.49C103.299 21.5687 103.771 21.736 104.233 21.9917C104.342 22.0507 104.405 22.1098 104.425 22.1688C104.445 22.2278 104.42 22.3409 104.351 22.5082L103.894 23.5263C103.845 23.664 103.791 23.7476 103.732 23.7771C103.682 23.8066 103.589 23.7968 103.451 23.7476C103.097 23.6197 102.768 23.5263 102.463 23.4673C102.158 23.3984 101.818 23.364 101.445 23.364C101.041 23.364 100.682 23.4525 100.367 23.6296C100.063 23.7968 99.8018 24.0329 99.5854 24.3378C99.3789 24.6329 99.2215 24.987 99.1133 25.4002C99.0051 25.8035 98.9509 26.2462 98.9509 26.7282C98.9509 27.2102 98.9903 27.6479 99.069 28.0414C99.1575 28.4349 99.3002 28.7742 99.4969 29.0595C99.7035 29.3448 99.9691 29.5661 100.294 29.7235C100.618 29.8809 101.022 29.9596 101.504 29.9596ZM113.567 23.1279C113.567 23.3246 113.469 23.423 113.272 23.423H110.601V31.5236C110.601 31.6515 110.577 31.7351 110.528 31.7745C110.488 31.8138 110.395 31.8335 110.247 31.8335H108.668C108.55 31.8335 108.462 31.8138 108.403 31.7745C108.354 31.7253 108.329 31.6417 108.329 31.5236V23.423H105.717C105.53 23.423 105.437 23.3246 105.437 23.1279V21.8147C105.437 21.6868 105.457 21.6032 105.496 21.5638C105.535 21.5245 105.609 21.5048 105.717 21.5048H113.272C113.39 21.5048 113.469 21.5245 113.508 21.5638C113.548 21.6032 113.567 21.6868 113.567 21.8147V23.1279ZM120.24 29.6792H116.861L116.285 31.5531C116.256 31.6515 116.212 31.7253 116.153 31.7745C116.103 31.8138 116.01 31.8335 115.872 31.8335H114.146C114.038 31.8335 113.969 31.804 113.939 31.745C113.92 31.6859 113.92 31.6171 113.939 31.5384L117.008 22.2868C117.058 22.1196 117.112 21.9868 117.171 21.8884C117.24 21.7802 117.313 21.6966 117.392 21.6376C117.481 21.5786 117.579 21.5392 117.687 21.5196C117.805 21.49 117.938 21.4753 118.086 21.4753H118.971C119.138 21.4753 119.281 21.4851 119.399 21.5048C119.517 21.5146 119.62 21.5491 119.709 21.6081C119.797 21.6671 119.871 21.7507 119.93 21.8589C119.999 21.9671 120.063 22.1098 120.122 22.2868L123.191 31.5384C123.211 31.5974 123.211 31.6614 123.191 31.7302C123.171 31.7991 123.107 31.8335 122.999 31.8335H121.243C121.135 31.8335 121.042 31.8237 120.963 31.804C120.894 31.7745 120.845 31.7056 120.815 31.5974L120.24 29.6792ZM117.392 27.8496H119.709L119.148 25.9757L118.602 23.8656H118.513L117.953 25.9757L117.392 27.8496ZM131.709 23.1279C131.709 23.3246 131.61 23.423 131.414 23.423H128.743V31.5236C128.743 31.6515 128.718 31.7351 128.669 31.7745C128.63 31.8138 128.536 31.8335 128.389 31.8335H126.81C126.692 31.8335 126.603 31.8138 126.544 31.7745C126.495 31.7253 126.471 31.6417 126.471 31.5236V23.423H123.859C123.672 23.423 123.579 23.3246 123.579 23.1279V21.8147C123.579 21.6868 123.598 21.6032 123.638 21.5638C123.677 21.5245 123.751 21.5048 123.859 21.5048H131.414C131.532 21.5048 131.61 21.5245 131.65 21.5638C131.689 21.6032 131.709 21.6868 131.709 21.8147V23.1279ZM133.866 31.8335C133.512 31.8335 133.276 31.7646 133.158 31.6269C133.04 31.4794 132.981 31.2482 132.981 30.9334V21.7704C132.981 21.5835 133.079 21.49 133.276 21.49H134.914C135.052 21.49 135.135 21.5097 135.165 21.5491C135.204 21.5884 135.224 21.6622 135.224 21.7704V25.2379H137.393C138.268 25.2379 138.957 25.3658 139.458 25.6215C139.96 25.8674 140.334 26.1675 140.58 26.5216C140.826 26.8757 140.978 27.2397 141.037 27.6135C141.096 27.9873 141.126 28.2971 141.126 28.5431C141.126 29.0152 141.032 29.453 140.845 29.8563C140.668 30.2596 140.418 30.6088 140.093 30.9039C139.778 31.1892 139.404 31.4154 138.972 31.5827C138.549 31.7499 138.091 31.8335 137.599 31.8335H133.866ZM138.809 28.4693C138.809 28.0758 138.686 27.7512 138.44 27.4954C138.204 27.2397 137.85 27.1118 137.378 27.1118H135.224V29.8563H137.363C137.639 29.8563 137.87 29.812 138.057 29.7235C138.244 29.6251 138.391 29.5071 138.499 29.3694C138.617 29.2316 138.696 29.0841 138.735 28.9267C138.785 28.7595 138.809 28.607 138.809 28.4693Z" fill="white"/>
<path d="M102.286 47.4741H98.9067L98.3312 49.3481C98.3017 49.4464 98.2575 49.5202 98.1984 49.5694C98.1492 49.6087 98.0558 49.6284 97.9181 49.6284H96.1917C96.0835 49.6284 96.0146 49.5989 95.9851 49.5399C95.9655 49.4809 95.9655 49.412 95.9851 49.3333L99.0542 40.0818C99.1034 39.9145 99.1575 39.7817 99.2165 39.6834C99.2854 39.5752 99.3592 39.4915 99.4379 39.4325C99.5264 39.3735 99.6248 39.3342 99.733 39.3145C99.851 39.285 99.9838 39.2702 100.131 39.2702H101.017C101.184 39.2702 101.327 39.2801 101.445 39.2997C101.563 39.3096 101.666 39.344 101.754 39.403C101.843 39.462 101.917 39.5456 101.976 39.6539C102.045 39.7621 102.109 39.9047 102.168 40.0818L105.237 49.3333C105.256 49.3923 105.256 49.4563 105.237 49.5251C105.217 49.594 105.153 49.6284 105.045 49.6284H103.289C103.181 49.6284 103.087 49.6186 103.009 49.5989C102.94 49.5694 102.891 49.5005 102.861 49.3923L102.286 47.4741ZM99.4379 45.6445H101.754L101.194 43.7706L100.648 41.6606H100.559L99.9986 43.7706L99.4379 45.6445ZM107.439 49.6284C107.075 49.6284 106.834 49.5596 106.716 49.4218C106.608 49.2841 106.554 49.0579 106.554 48.7431V40.3031C106.554 39.9588 106.623 39.708 106.761 39.5506C106.898 39.3833 107.144 39.2997 107.498 39.2997H113.253C113.361 39.2997 113.43 39.3243 113.459 39.3735C113.499 39.4128 113.518 39.4965 113.518 39.6243V40.9376C113.518 41.0458 113.499 41.1195 113.459 41.1589C113.43 41.1982 113.361 41.2179 113.253 41.2179H108.797V43.0476H110.951C111.531 43.0476 112.028 43.1066 112.441 43.2246C112.854 43.3427 113.199 43.5001 113.474 43.6968C113.759 43.8837 113.981 44.1001 114.138 44.346C114.305 44.5821 114.428 44.8231 114.507 45.069C114.586 45.315 114.635 45.556 114.655 45.792C114.684 46.0183 114.699 46.215 114.699 46.3823C114.699 46.8544 114.605 47.2872 114.419 47.6807C114.241 48.0742 113.991 48.4185 113.666 48.7136C113.351 48.9989 112.977 49.2251 112.545 49.3923C112.122 49.5497 111.659 49.6284 111.158 49.6284H107.439ZM112.368 46.2642C112.368 45.8806 112.245 45.5609 111.999 45.3051C111.763 45.0494 111.413 44.9215 110.951 44.9215H108.797V47.666H110.936C111.212 47.666 111.443 47.6217 111.63 47.5332C111.817 47.4348 111.964 47.3168 112.072 47.179C112.181 47.0413 112.254 46.8889 112.294 46.7216C112.343 46.5544 112.368 46.4019 112.368 46.2642ZM125.22 44.4346C125.22 45.2805 125.127 46.033 124.94 46.6921C124.763 47.3512 124.482 47.9119 124.099 48.3742C123.715 48.8366 123.233 49.1907 122.653 49.4366C122.072 49.6727 121.384 49.7907 120.587 49.7907C119.062 49.7907 117.926 49.3284 117.178 48.4037C116.441 47.4791 116.072 46.1708 116.072 44.4788C116.072 43.6525 116.175 42.9098 116.382 42.2508C116.598 41.5819 116.903 41.0212 117.296 40.5687C117.69 40.1063 118.167 39.7522 118.728 39.5063C119.288 39.2604 119.923 39.1374 120.631 39.1374C121.398 39.1374 122.067 39.2604 122.638 39.5063C123.218 39.7522 123.695 40.1063 124.069 40.5687C124.453 41.0212 124.738 41.577 124.925 42.236C125.122 42.8853 125.22 43.6181 125.22 44.4346ZM122.874 44.4788C122.874 44.0362 122.839 43.6132 122.771 43.2099C122.712 42.8066 122.598 42.4524 122.431 42.1475C122.264 41.8426 122.038 41.6015 121.752 41.4245C121.467 41.2376 121.098 41.1441 120.646 41.1441C120.272 41.1441 119.942 41.2327 119.657 41.4097C119.382 41.577 119.151 41.8081 118.964 42.1032C118.777 42.3983 118.639 42.7426 118.551 43.1361C118.462 43.5296 118.418 43.9476 118.418 44.3903C118.418 44.9116 118.452 45.3789 118.521 45.792C118.6 46.2052 118.723 46.5593 118.89 46.8544C119.067 47.1495 119.298 47.3758 119.583 47.5332C119.869 47.6906 120.228 47.7693 120.661 47.7693C121.084 47.7693 121.438 47.6807 121.723 47.5037C122.008 47.3168 122.234 47.0758 122.402 46.7806C122.569 46.4757 122.687 46.1265 122.756 45.733C122.835 45.3297 122.874 44.9116 122.874 44.4788ZM135.644 49.3186C135.644 49.4464 135.619 49.53 135.57 49.5694C135.531 49.6087 135.438 49.6284 135.29 49.6284H133.741C133.613 49.6284 133.524 49.6087 133.475 49.5694C133.426 49.5202 133.401 49.4366 133.401 49.3186V45.1871H129.403V49.3186C129.403 49.4464 129.378 49.53 129.329 49.5694C129.289 49.6087 129.196 49.6284 129.048 49.6284H127.484C127.366 49.6284 127.278 49.6087 127.219 49.5694C127.17 49.5202 127.145 49.4366 127.145 49.3186V39.6096C127.145 39.4915 127.17 39.4128 127.219 39.3735C127.278 39.3243 127.366 39.2997 127.484 39.2997H129.048C129.196 39.2997 129.289 39.3194 129.329 39.3587C129.378 39.3981 129.403 39.4817 129.403 39.6096V43.2836H133.401V39.6096C133.401 39.4915 133.426 39.4128 133.475 39.3735C133.524 39.3243 133.613 39.2997 133.741 39.2997H135.29C135.438 39.2997 135.531 39.3194 135.57 39.3587C135.619 39.3981 135.644 39.4817 135.644 39.6096V49.3186ZM145.244 49.289C145.244 49.4071 145.224 49.4956 145.185 49.5546C145.145 49.6038 145.067 49.6284 144.949 49.6284H140.581C140.03 49.6284 139.578 49.5497 139.224 49.3923C138.879 49.2349 138.604 49.0284 138.397 48.7726C138.191 48.5169 138.048 48.2267 137.969 47.9021C137.891 47.5774 137.851 47.2479 137.851 46.9134V42.0147C137.851 41.6606 137.9 41.3212 137.999 40.9966C138.097 40.672 138.25 40.3818 138.456 40.126C138.673 39.8703 138.953 39.6686 139.297 39.5211C139.642 39.3637 140.065 39.285 140.566 39.285H144.801C144.919 39.285 144.993 39.3096 145.022 39.3587C145.062 39.4079 145.081 39.5014 145.081 39.6391V40.8933C145.081 41.0212 145.062 41.1097 145.022 41.1589C144.983 41.1982 144.909 41.2179 144.801 41.2179H141.053C140.67 41.2179 140.414 41.3064 140.286 41.4835C140.158 41.6606 140.094 41.877 140.094 42.1327V43.2689H144.329C144.447 43.2689 144.521 43.2935 144.55 43.3427C144.59 43.3919 144.609 43.4853 144.609 43.623V44.7739C144.609 44.892 144.59 44.9805 144.55 45.0395C144.521 45.0887 144.447 45.1133 144.329 45.1133H140.094V46.7954C140.094 47.1397 140.173 47.3758 140.33 47.5037C140.497 47.6217 140.738 47.6807 141.053 47.6807H144.949C145.076 47.6807 145.155 47.7053 145.185 47.7545C145.224 47.7938 145.244 47.8873 145.244 48.0348V49.289ZM155.399 49.3186C155.399 49.4464 155.375 49.53 155.326 49.5694C155.286 49.6087 155.193 49.6284 155.045 49.6284H153.496C153.368 49.6284 153.28 49.6087 153.23 49.5694C153.181 49.5202 153.157 49.4366 153.157 49.3186V45.1871H149.158V49.3186C149.158 49.4464 149.133 49.53 149.084 49.5694C149.045 49.6087 148.951 49.6284 148.804 49.6284H147.24C147.122 49.6284 147.033 49.6087 146.974 49.5694C146.925 49.5202 146.9 49.4366 146.9 49.3186V39.6096C146.9 39.4915 146.925 39.4128 146.974 39.3735C147.033 39.3243 147.122 39.2997 147.24 39.2997H148.804C148.951 39.2997 149.045 39.3194 149.084 39.3587C149.133 39.3981 149.158 39.4817 149.158 39.6096V43.2836H153.157V39.6096C153.157 39.4915 153.181 39.4128 153.23 39.3735C153.28 39.3243 153.368 39.2997 153.496 39.2997H155.045C155.193 39.2997 155.286 39.3194 155.326 39.3587C155.375 39.3981 155.399 39.4817 155.399 39.6096V49.3186ZM164.807 40.9228C164.807 41.1195 164.709 41.2179 164.512 41.2179H161.841V49.3186C161.841 49.4464 161.817 49.53 161.768 49.5694C161.728 49.6087 161.635 49.6284 161.487 49.6284H159.908C159.79 49.6284 159.702 49.6087 159.643 49.5694C159.594 49.5202 159.569 49.4366 159.569 49.3186V41.2179H156.957C156.77 41.2179 156.677 41.1195 156.677 40.9228V39.6096C156.677 39.4817 156.697 39.3981 156.736 39.3587C156.775 39.3194 156.849 39.2997 156.957 39.2997H164.512C164.63 39.2997 164.709 39.3194 164.748 39.3587C164.788 39.3981 164.807 39.4817 164.807 39.6096V40.9228ZM174.933 44.4346C174.933 45.2805 174.839 46.033 174.652 46.6921C174.475 47.3512 174.195 47.9119 173.811 48.3742C173.428 48.8366 172.946 49.1907 172.365 49.4366C171.785 49.6727 171.096 49.7907 170.299 49.7907C168.775 49.7907 167.639 49.3284 166.891 48.4037C166.153 47.4791 165.784 46.1708 165.784 44.4788C165.784 43.6525 165.888 42.9098 166.094 42.2508C166.311 41.5819 166.615 41.0212 167.009 40.5687C167.402 40.1063 167.88 39.7522 168.44 39.5063C169.001 39.2604 169.635 39.1374 170.344 39.1374C171.111 39.1374 171.78 39.2604 172.35 39.5063C172.931 39.7522 173.408 40.1063 173.782 40.5687C174.165 41.0212 174.451 41.577 174.637 42.236C174.834 42.8853 174.933 43.6181 174.933 44.4346ZM172.586 44.4788C172.586 44.0362 172.552 43.6132 172.483 43.2099C172.424 42.8066 172.311 42.4524 172.144 42.1475C171.977 41.8426 171.75 41.6015 171.465 41.4245C171.18 41.2376 170.811 41.1441 170.358 41.1441C169.985 41.1441 169.655 41.2327 169.37 41.4097C169.094 41.577 168.863 41.8081 168.676 42.1032C168.489 42.3983 168.352 42.7426 168.263 43.1361C168.175 43.5296 168.13 43.9476 168.13 44.3903C168.13 44.9116 168.165 45.3789 168.234 45.792C168.312 46.2052 168.435 46.5593 168.603 46.8544C168.78 47.1495 169.011 47.3758 169.296 47.5332C169.581 47.6906 169.94 47.7693 170.373 47.7693C170.796 47.7693 171.15 47.6807 171.436 47.5037C171.721 47.3168 171.947 47.0758 172.114 46.7806C172.282 46.4757 172.4 46.1265 172.468 45.733C172.547 45.3297 172.586 44.9116 172.586 44.4788ZM185.357 43.682H185.268L184.663 45.0543L183.439 47.7693C183.33 48.025 183.217 48.1972 183.099 48.2857C182.991 48.3742 182.824 48.4185 182.597 48.4185H181.786C181.54 48.4185 181.368 48.3742 181.269 48.2857C181.181 48.1972 181.078 48.025 180.96 47.7693L180.045 45.8511L179.13 43.8591H179.041V49.3333C179.041 49.471 179.017 49.5546 178.968 49.5842C178.918 49.6137 178.83 49.6284 178.702 49.6284H177.197C177.089 49.6284 177.005 49.6137 176.946 49.5842C176.887 49.5546 176.858 49.471 176.858 49.3333V40.3178C176.858 39.944 176.927 39.6784 177.064 39.5211C177.212 39.3637 177.458 39.285 177.802 39.285H178.658C178.933 39.285 179.135 39.3391 179.263 39.4473C179.4 39.5456 179.528 39.7227 179.646 39.9785L181.255 43.5788L182.17 45.674H182.229L183.232 43.3722L184.737 40.008C184.855 39.7424 184.983 39.5555 185.121 39.4473C185.268 39.3391 185.499 39.285 185.814 39.285H186.537C186.852 39.285 187.088 39.3538 187.245 39.4915C187.403 39.6194 187.481 39.8703 187.481 40.2441V49.3333C187.481 49.471 187.457 49.5546 187.408 49.5842C187.358 49.6137 187.27 49.6284 187.142 49.6284H185.681C185.573 49.6284 185.489 49.6137 185.43 49.5842C185.381 49.5546 185.357 49.471 185.357 49.3333V43.682Z" fill="white"/>
</svg>
